<?xml version="1.0" encoding="UTF-8" standalone="no" ?>
<!DOCTYPE svg PUBLIC "-//W3C//DTD SVG 1.1//EN" "http://www.w3.org/Graphics/SVG/1.1/DTD/svg11.dtd">
<svg xmlns="http://www.w3.org/2000/svg" xmlns:xlink="http://www.w3.org/1999/xlink" version="1.1" width="1080" height="1080" viewBox="0 0 1080 1080" xml:space="preserve">
<desc>Created with Fabric.js 5.2.4</desc>
<defs>
</defs>
<g transform="matrix(1 0 0 1 540 540)" id="ac81cc4c-385a-4a8d-ad7d-2c73da57b50c"  >
<rect style="stroke: none; stroke-width: 1; stroke-dasharray: none; stroke-linecap: butt; stroke-dashoffset: 0; stroke-linejoin: miter; stroke-miterlimit: 4; fill: rgb(255,255,255); fill-rule: nonzero; opacity: 1; visibility: hidden;" vector-effect="non-scaling-stroke"  x="-540" y="-540" rx="0" ry="0" width="1080" height="1080" />
</g>
<g transform="matrix(1 0 0 1 540 540)" id="27f6a15a-0c6f-41cb-990a-07038e62e014"  >
</g>
<g transform="matrix(1.84 0 0 1.84 540.02 535.41)"  >
<path style="stroke: none; stroke-width: 1; stroke-dasharray: none; stroke-linecap: butt; stroke-dashoffset: 0; stroke-linejoin: miter; stroke-miterlimit: 4; fill: rgb(169,123,255); fill-rule: nonzero; opacity: 1;" vector-effect="non-scaling-stroke"  transform=" translate(-12.01, -9.5)" d="M 12.1205 13.53 C 12.1005 13.53 12.0705 13.53 12.0505 13.53 C 12.0205 13.53 11.9805 13.53 11.9505 13.53 C 9.68047 13.459999999999999 7.98047 11.69 7.98047 9.509979999999999 C 7.98047 7.289979999999998 9.790470000000001 5.4799799999999985 12.0105 5.4799799999999985 C 14.230500000000001 5.4799799999999985 16.0405 7.289979999999998 16.0405 9.509979999999999 C 16.0305 11.7 14.320500000000001 13.459999999999999 12.150500000000001 13.529999999999998 C 12.130500000000001 13.529999999999998 12.130500000000001 13.529999999999998 12.120500000000002 13.529999999999998 z M 12.0005 6.96998 C 10.6005 6.96998 9.47047 8.10998 9.47047 9.499979999999999 C 9.47047 10.87 10.540500000000002 11.979999999999999 11.900500000000001 12.03 C 11.9305 12.02 12.030500000000002 12.02 12.130500000000001 12.03 C 13.470500000000001 11.959999999999999 14.520500000000002 10.86 14.530500000000002 9.499979999999999 C 14.530500000000002 8.109979999999998 13.400500000000001 6.96998 12.000500000000002 6.96998 z" stroke-linecap="round" />
</g>
<g transform="matrix(1.84 0 0 1.84 540 552.37)"  >
<path style="stroke: none; stroke-width: 1; stroke-dasharray: none; stroke-linecap: butt; stroke-dashoffset: 0; stroke-linejoin: miter; stroke-miterlimit: 4; fill: rgb(169,123,255); fill-rule: nonzero; opacity: 1;" vector-effect="non-scaling-stroke"  transform=" translate(-12, -18.72)" d="M 12.0008 22.7501 C 9.31081 22.7501 6.74081 21.7501 4.7508099999999995 19.9301 C 4.57081 19.7701 4.49081 19.5301 4.510809999999999 19.3001 C 4.640809999999999 18.1101 5.380809999999999 17.0001 6.610809999999999 16.1801 C 9.59081 14.200099999999999 14.4208 14.200099999999999 17.3908 16.1801 C 18.6208 17.010099999999998 19.360799999999998 18.1101 19.4908 19.3001 C 19.5208 19.5401 19.4308 19.7701 19.2508 19.9301 C 17.260800000000003 21.7501 14.690800000000003 22.7501 12.000800000000002 22.7501 z M 6.08081 19.1001 C 7.74081 20.4901 9.83081 21.2501 12.0008 21.2501 C 14.1708 21.2501 16.2608 20.490099999999998 17.9208 19.1001 C 17.7408 18.4901 17.2608 17.900100000000002 16.5508 17.4201 C 14.090799999999998 15.780100000000001 9.92081 15.780100000000001 7.440809999999999 17.4201 C 6.730809999999999 17.900100000000002 6.260809999999999 18.4901 6.080809999999999 19.1001 z" stroke-linecap="round" />
</g>
<g transform="matrix(1.84 0 0 1.84 540 540)"  >
<path style="stroke: none; stroke-width: 1; stroke-dasharray: none; stroke-linecap: butt; stroke-dashoffset: 0; stroke-linejoin: miter; stroke-miterlimit: 4; fill: rgb(169,123,255); fill-rule: nonzero; opacity: 1;" vector-effect="non-scaling-stroke"  transform=" translate(-12, -12)" d="M 12 22.75 C 6.07 22.75 1.25 17.93 1.25 12 C 1.25 6.07 6.07 1.25 12 1.25 C 17.93 1.25 22.75 6.07 22.75 12 C 22.75 17.93 17.93 22.75 12 22.75 z M 12 2.75 C 6.9 2.75 2.75 6.9 2.75 12 C 2.75 17.1 6.9 21.25 12 21.25 C 17.1 21.25 21.25 17.1 21.25 12 C 21.25 6.899999999999999 17.1 2.75 12 2.75 z" stroke-linecap="round" />
</g>
</svg>